{"title":"Abandoned-AC3-XviD-DVDRip[Eng]2010 2Lions-Team","uid":5792863,"size":1464731736,"categoryP":"video","categoryS":"movies","magnet":"?xt=urn:btih:c3b333bac0e497cdc2c7a306a85a37471dd94d02&amp;dn=Abandoned-AC3-XviD-DVDRip%5BEng%5D2010+2Lions-Team&amp;tr=udp%3A%2F%2Ftracker.openbittorrent.com%3A80&amp;tr=udp%3A%2F%2Fopen.demonii.com%3A1337&amp;tr=udp%3A%2F%2Ftracker.coppersurfer.tk%3A6969&amp;tr=udp%3A%2F%2Fexodus.desync.com%3A6969","seeders":0,"leechers":0,"uploader":"FatFreddy31","files":-1,"time":1282917617,"description":"Mary Walsh delivers boyfriend Kevin to a hospital for routine outpatient surgery. But when Mary returns to take him home... \n &lt;a href=&quot;\nhttp://www.imdb.com/title/tt1470171/&quot; rel=&quot;nofollow&quot; target=&quot;_NEW&quot;&gt;\nhttp://www.imdb.com/title/tt1470171/&lt;/a&gt;\n\nSubtitles (srt) : Dutch, English.\n\nCovers included.\n\nMary Walsh brengt haar vriend Kevin naar het ziekenhuis voor een routine operatie. Wanneer Mary terugkomt om hem weer op te halen blijkt hij op mysterieuze wijze verdwenen te zijn. De administratie kan geen gegevens van hem vinden en een onderzoek door de politie levert niets op. Uitzinnig van woede wordt Mary naar de psychiater Dr. Bensley gebracht, die haar onstabiel verklaart. Nu moet ze niet alleen haar missende vriend vinden maar ook bewijzen dat ze volledig normaal is. Wanneer een vreemdeling haar verteld dat ze weet waar Kevin is en $10 miljoen losgeld eist heeft ze ÃƒÂ©ÃƒÂ©n uur de tijd om het geld bij elkaar te krijgen of het leven van haar vriend zal in gevaar lopen. Gedwongen om het geld te verduisteren van de bank waar ze werkt ontdekt ze al snel de schokkende waarheid achter de verdwijning. Wanneer de tijd begint te dringen moet ze maatregelen nemen om zichzelf te redden.\n &lt;a href=&quot;\nhttp://www.moviemeter.nl/film/66881&quot; rel=&quot;nofollow&quot; target=&quot;_NEW&quot;&gt;\nhttp://www.moviemeter.nl/film/66881&lt;/a&gt;\n\nOndertitels (srt) : Engels, Nederlands.\n\nHoesjes bijgevoegd.\n\nGeneral\nComplete name                    : Abandoned-AC3-XviD-DVDRip[Eng]2010 2Lions-Team\\Abandoned-AC3-XviD-DVDRip[Eng]2010 2Lions-Team.avi\nFormat                           : AVI\nFormat/Info                      : Audio Video Interleave\nFile size                        : 1.36 GiB\nDuration                         : 1h 28mn\nOverall bit rate                 : 2 215 Kbps\nWriting application              : VirtualDubMod 1.5.4.1 (build 2178/release)\nWriting library                  : VirtualDubMod build 2178/release\n\nVideo\nID                               : 0\nFormat                           : MPEG-4 Visual\nFormat profile                   : Simple@L3\nFormat settings, BVOP            : No\nFormat settings, QPel            : No\nFormat settings, GMC             : No warppoints\nFormat settings, Matrix          : Default (H.263)\nCodec ID                         : XVID\nCodec ID/Hint                    : XviD\nDuration                         : 1h 28mn\nBit rate                         : 1 758 Kbps\nWidth                            : 720 pixels\nHeight                           : 400 pixels\nDisplay aspect ratio             : 16:9\nFrame rate                       : 23.976 fps\nResolution                       : 8 bits\nColorimetry                      : 4:2:0\nScan type                        : Progressive\nBits/(Pixel*Frame)               : 0.255\nStream size                      : 1.08 GiB (79%)\nWriting library                  : XviD 1.1.2 (UTC 2006-11-01)\n\nAudio\nID                               : 1\nFormat                           : AC-3\nFormat/Info                      : Audio Coding 3\nFormat_Settings_ModeExtension    : CM (complete main)\nCodec ID                         : 2000\nDuration                         : 1h 28mn\nBit rate mode                    : Constant\nBit rate                         : 448 Kbps\nChannel(s)                       : 6 channels\nChannel positions                : Front: L C R, Side: L R, LFE\nSampling rate                    : 48.0 KHz\nStream size                      : 282 MiB (20%)\nAlignment                        : Split accross interleaves\nInterleave, duration             : 42 ms (1.00 video frame)\nInterleave, preload duration     : 500 ms\n\nThanks to Simply ReleaseS for the source.Nice job!\n\nBrought to you by \n2Lions Team\n\nmeer zien??\n                   \nKom dan eens kijken op ons NIEUWE forum \n            &lt;a href=&quot;\nhttp://www.2lions-site.nl/&quot; rel=&quot;nofollow&quot; target=&quot;_NEW&quot;&gt;\nhttp://www.2lions-site.nl/&lt;/a&gt;\n\n2Lions the site to be for all your Dutch MOVIES and more\n\n******************************************\n\nDON T HIT AND RUN Niet gelijk afhaken als de FILM binnen is blijf seeden. \n\nDon`t quit after you finished the download, but keep seeding\n\nThere are fake torrents from uploaders who use our team name.\nThose are not ours, or members from our team.\nWe 2Lions-Team are not responsible for the fake posts on our name\n\nWij 2Lions-Team zijn niet verantwoordelijk voor die zieke FAKE posten die op onze naam worden gedaan\n\nPlease check our site !!!\n\nto the fakers , get a life !!!","torrent":{"xt":"urn:btih:c3b333bac0e497cdc2c7a306a85a37471dd94d02","amp;dn":"Abandoned-AC3-XviD-DVDRip%5BEng%5D2010+2Lions-Team","amp;tr":["udp%3A%2F%2Ftracker.openbittorrent.com%3A80","udp%3A%2F%2Fopen.demonii.com%3A1337","udp%3A%2F%2Ftracker.coppersurfer.tk%3A6969","udp%3A%2F%2Fexodus.desync.com%3A6969"],"infoHash":"c3b333bac0e497cdc2c7a306a85a37471dd94d02","infoHashBuffer":{"type":"Buffer","data":[195,179,51,186,192,228,151,205,194,199,163,6,168,90,55,71,29,217,77,2]},"announce":[],"urlList":[]}}